<svg width="336" height="378" viewBox="0 0 336 378" fill="none" xmlns="http://www.w3.org/2000/svg">
<path d="M136.842 39.5164C155.245 29.2689 177.675 29.4224 195.936 39.921L284.905 91.0695C303.522 101.773 315 121.611 315 143.086V242.395C315 264.932 302.371 285.568 282.303 295.823L194.678 340.602C177.046 349.613 156.103 349.343 138.708 339.883L51.3329 292.361C32.0215 281.858 20 261.636 20 239.653V139.842C20 118.073 31.791 98.0116 50.8104 87.4211L136.842 39.5164Z" fill="white"/>
<path d="M195.043 19.0773L304.65 82.0672C322.497 92.3234 333.5 111.337 333.5 131.921V254.875C333.5 276.476 321.394 296.254 302.158 306.081L193.894 361.385C177 370.015 156.938 369.757 140.272 360.696L32.5354 302.123C14.0242 292.059 2.5 272.676 2.5 251.606V128.151C2.5 107.286 13.8033 88.058 32.0347 77.9101L138.428 18.6898C156.06 8.87527 177.547 9.02235 195.043 19.0773Z" stroke="white" stroke-width="5"/>
<path d="M100 231.603V128.333C100 121.762 106.096 116.111 111.735 119.486C117.296 122.813 120.398 128.535 123.62 137.733C124.015 138.861 124.208 140.054 124.208 141.249V231.603C126.595 250.735 139.134 261.024 152.032 263.777C158.822 265.226 165.361 270.419 165.361 277.362V278C165.361 284.075 160.411 289.085 154.385 288.313C122.952 284.284 100.725 262.839 100 231.603Z" fill="#FF007D"/>
<path d="M168.589 158.037V278C168.589 284.075 173.514 289 179.589 289H185.025C191.1 289 196.025 284.075 196.025 278V222.393C196.025 216.317 200.95 211.393 207.025 211.393H224.692C226.012 211.393 227.328 211.168 228.544 210.654C234.392 208.182 238.109 205.079 240.92 199.471C244.094 193.137 238.471 186.332 231.386 186.332H207.025C200.95 186.332 196.025 181.407 196.025 175.332V158.037C196.025 151.57 202.48 142.678 213.777 142.678H243.179C244.551 142.678 245.912 142.439 247.162 141.873C252.427 139.491 255.82 136.386 258.503 130.959C261.677 124.54 256.059 117.617 248.899 117.617H210.549C186.342 117.617 168.589 136.21 168.589 158.037Z" fill="#FF007D"/>
</svg>
